<?xml version="1.0" encoding="UTF-8"?>
<svg id="Capa_1" data-name="Capa 1" xmlns="http://www.w3.org/2000/svg" version="1.1" viewBox="0 0 884.53 885.97">
  <defs>
    <style>
      .cls-1 {
        fill: #1d1d1b;
        stroke-width: 0px;
      }

      .cls-1, .cls-2, .cls-3, .cls-4, .cls-5 {
        fill-rule: evenodd;
      }

      .cls-2 {
        stroke-width: .98px;
      }

      .cls-2, .cls-3, .cls-4, .cls-5 {
        stroke: #1d1d1b;
        stroke-miterlimit: 10;
      }

      .cls-2, .cls-5 {
        fill: none;
      }

      .cls-3 {
        fill: #ad4582;
      }

      .cls-3, .cls-4 {
        stroke-width: 4px;
      }

      .cls-4 {
        fill: #ef7d00;
      }

      .cls-5 {
        stroke-width: 2.93px;
      }
    </style>
  </defs>
  <path class="cls-1" d="M416.23.08c225.13-3.66,367.69,112.28,433.8,266.73,42.42,99.11,47.65,236.89,4.89,340.98-51.54,125.48-150.94,217.23-286.27,258.91-30.66,9.44-63.4,10.57-98.68,16.61-68.24,11.68-158.08-17.96-200.29-36.15C107.05,777.08-59.01,567.17,20.54,313.71,62.45,180.16,155.1,80.5,280.43,30.37c26.66-10.66,55.71-17.71,85.98-24.43L416.23.08Z"/>
  <path class="cls-3" d="M460.2,38.19c-12.46,5-31.57-.58-46.9,1.95-20.06,3.31-44.63,2.26-66.44,7.82l-20.52,12.7-25.4,6.84-6.84,9.77-20.52.98c-57.22,21.68-77.8,57.5-119.2,90.86-9.44,8.47-18.89,16.94-28.33,25.4-4.88,10.75-9.77,21.5-14.66,32.24-7.49,9.44-14.98,18.89-22.47,28.33-3.91,11.07-7.82,22.15-11.72,33.22-7.82,17.74-19.05,34.94-25.4,55.69-17.22,56.24-14.39,150.92,2.93,207.13,5.82,18.88,17.59,34.64,24.43,51.78l6.84,25.4c5.54,5.86,11.07,11.72,16.61,17.59l16.61,34.2c8.14,7.82,16.28,15.63,24.43,23.45,6.51,10.09,13.03,20.19,19.54,30.29,14.47,14.68,31.84,23.74,49.83,35.17,11.4,10.42,22.8,20.84,34.2,31.26,27.64,15.87,60.66,20.06,93.79,29.31,8.47,3.26,16.94,6.51,25.4,9.77v-.98c-6.25-20.84-8.47-42.73-11.72-66.44-16.22-.17-23.06-7.92-34.2-12.7-18.24-7.16-36.48-14.33-54.71-21.49-6.19-4.88-12.38-9.77-18.56-14.66l-16.61-4.89c-7.82-9.12-15.63-18.24-23.45-27.36-12.37-10.09-24.75-20.19-37.13-30.29-6.67-11.87-8.74-25.5-16.61-37.13-4.56-3.26-9.12-6.51-13.68-9.77l-3.91-16.61c-6.51-13.03-13.03-26.06-19.54-39.08l-.98-22.47c-4.38-14.12-12.47-30.18-15.63-46.9v-45.92c-.98-13.68-1.95-27.36-2.93-41.04,4.88-15.31,9.77-30.62,14.66-45.92,1.95-13.03,3.91-26.06,5.86-39.08,42.1-105.46,125.63-179.94,242.3-211.04,13.09-3.49,95.53-24.86,109.43-19.54,10.16,3.89,24.27,10.26,37.13,12.7h16.61l28.33,12.7,15.63.98c6.71,2.61,8.02,9.14,17.59,10.75v-2.93l-2.93-14.66c-13.13-2.18-12.46-10.55-15.63-22.47l7.82-7.82,11.72.98c3.26,16.93,6.51,33.87,9.77,50.81,36.22,20.06,76.05,36.64,105.52,63.51,13.65,12.44,29.91,45.93,39.08,63.51,8.79,13.03,17.59,26.06,26.38,39.08,9.44,28.01,18.89,56.02,28.33,84.02l-.98,33.22c2.18,13.25,6.41,36.08,1.95,50.81l-6.84,11.72,2.93,9.77c-1.63,13.35-3.26,26.71-4.89,40.06-9.02,32.02-26.15,65.08-43.97,89.89l-14.66,13.68-4.89,16.61c-10.87,11.72-31.34,19.85-33.22,40.06h.98c23.06-9.53,37.35-31.68,55.69-45.92,38.42-29.83,82.09-82.6,97.7-133.85,3.76-12.34-.8-23.51.98-36.15,7.8-55.43-1.94-110.16-18.56-152.42-30.36-77.16-59.33-123.77-120.17-170.98-7.49-7.82-14.98-15.63-22.47-23.45-10.75-5.86-21.5-11.72-32.24-17.59-9.44-8.14-18.89-16.28-28.33-24.43-12.64-7.66-29.12-6.18-43.97-12.7-32.55-14.3-73.38-27.33-119.2-27.36Z"/>
  <path class="cls-4" d="M352.73,763.14c.35-11.38-5.09-52.97-9.77-57.64l-23.45-13.68-30.29-26.38-20.52-7.82-28.33-32.24c-7.16-5.86-14.33-11.72-21.49-17.59-6.16-8.33-7.13-21.15-12.7-30.29-7.7-12.62-19.06-26.59-22.47-42.99l.98-17.59c-28.31-132.22,38.4-222.96,123.11-273.57l31.26-5.86c40.3-17.18,99.8-29.7,154.37-12.7,17.21,5.36,29.6,18.42,42.99,27.36l19.54,6.84c16.12,9.67,32.19,25.97,42.99,41.04,10.5,14.65,17.11,39.2,28.33,50.81h.98c1.39-13.54,10.76-28.33,10.75-38.1-.02-16.29-22.18-33.23-30.29-43.97-30.48-40.35-124.07-91.31-206.15-78.16l-52.76,6.84c-13.7,3.76-51.05,22.57-66.44,17.59l1.95-.98c7.35-7.52,18.59-8.27,29.31-12.7,43.34-17.91,101.56-45.33,169.03-32.24l33.22,9.77c12.6,2.97,20.62,1.45,31.26,4.89,10.35,3.34,38.52,14.59,48.85,20.52,10.06,5.77,14.39,14.7,27.36,19.54l-3.91-16.61c-4.33,1.21-5.79,3.36-8.79,5.86l-5.86-5.86c-22.79-11.45-6.76-55.04-18.56-74.25-11.08-2.65-14.39-7.64-21.49-11.72l-23.45-2.93-21.49-11.72h-20.52l-40.06-11.72c-16.68-3.49-31.67,8.67-43.97,9.77l-10.75-3.91-31.26,10.75-42.01,6.84c-22.8,8.43-46.98,26.79-66.44,39.08-15.63,9.12-31.27,18.24-46.9,27.36-4.56,5.54-9.12,11.07-13.68,16.61l-13.68,4.89-9.77,21.49c-8.79,9.77-17.59,19.54-26.38,29.31l-26.38,56.67c-6.75,16.26-6.02,30.63-10.75,50.81l-11.72,36.15c-4.85,24.99,1.26,99.67,7.82,120.17l9.77,15.63v19.54c5.21,9.77,10.42,19.54,15.63,29.31,1.95,7.82,3.91,15.63,5.86,23.45,3.2,4.24,10.58,4.03,13.68,8.79,3.26,8.79,6.51,17.59,9.77,26.38,11.16,19.52,33.41,30.46,48.85,45.92,4.56,6.19,9.12,12.38,13.68,18.56l16.61,4.89,10.75,11.72c11.86,8.14,78.75,37.28,93.79,38.1Z"/>
  <path class="cls-4" d="M598.94,138.82l4.89,20.52c13.39-.45,22.06,1.63,29.31,6.84,2.58,9.77-1.08,26.66,2.93,37.13,4.27,11.15,13.43,20.51,18.56,30.29,4.88,12.05,9.77,24.1,14.66,36.15l30.29,36.15c29.32,53.29,42.93,131.05,26.38,206.15-3.98,18.06-14.58,24.77-20.52,39.08l-8.79,26.38c-2.94,5.82-7.97,8.75-9.77,15.63,2.27,5.05,4.98,9.07,3.91,14.66l-13.68,7.82c5.71,13.43,7.92,29.96,7.82,50.81h3.91c6.72-19.08,23.26-19.13,30.29-31.26,21.6-37.29,44.95-71.4,59.6-115.29l4.89-33.22c-.72-3.79-4.86-8.89-2.93-15.63,10.56-36.88,4.18-94.7-5.86-126.04-28.47-88.85-87.5-177.7-175.87-206.15Z"/>
  <path class="cls-3" d="M431.87,175.95c-11.08,4.26-30.65.71-39.08,7.82,42.92-.65,81.79.35,115.29,9.77,14.33,7.82,28.66,15.63,42.99,23.45,38.64,16.21,42.68,16.64,65.46,48.85,8.12,11.49,19.19,16.89,23.45,33.22h1.95v-6.84c-4.88-18.24-9.77-36.48-14.66-54.71-34.2-37.71-120.98-61.55-195.41-61.55Z"/>
  <path class="cls-3" d="M434.8,647.85v-6.84c6.01,1.17,4.85,4.25,10.75,3.91,13.7-.8,58.38-27.54,63.51-36.15-123.62,1.59-223.93-48.88-200.29-174.89l-10.75,2.93v-7.82c4.57-7.6,14.04-9.59,18.56-16.61,5.53-8.59,6.1-18.67,11.72-26.38,5.52-7.57,16.73-12.79,20.52-21.49l-13.68-12.7-12.7,3.91-1.95-2.93v-2.93c7.41-8.88,17.26-30.1,25.4-36.15l14.66,2.93c6.01-.78,9.63-7.76,13.68-10.75,11.72-7.16,23.45-14.33,35.17-21.49,5.47-4.53,4.62-12.58,8.79-18.56l11.72-7.82c7.46,2.24,13.6,3.72,13.68,13.68l-2.93,9.77c-7.76,5.29-21.22,4.4-30.29,9.77-14.96,8.87-21.98,24.29-40.06,31.26-1.35,9.22-10.28,20.54-6.84,26.38l1.95,2.93c13.81-5.07,24.99-13.8,41.04-17.59l36.15-1.95,8.79-6.84c16.66,1.03,28.26,13.72,42.99,15.63,12.81,1.66,36.02-8.19,46.9-5.86,16.42,3.51,13.82,22.2,34.2,23.45-.68,5.54-8.22,8.77-6.84,8.79,4.24,1.36,8.04-1,11.72-2.93.84,5.64,5.53,23.34,9.77,26.38h5.86c-.26,7.65-1.79,19.77-2.93,26.38l-12.7,3.91,4.89,7.82,14.66-3.91c4.03-22.38,22.68-37.37,24.43-58.62-3.68-9.64-11.38-15.54-14.66-23.45v-10.75c-6.21-15.76-39.29-53.36-52.76-62.53l-26.38-11.72c-10.13-7.14-19.14-17.41-31.26-22.47-33.22-13.85-103.16-12.7-138.74-1.95-7.16,4.23-14.33,8.47-21.49,12.7-10.01,3-20.74.4-28.33,4.89l-26.38,23.45-21.49,9.77c-5.54,7.49-11.07,14.98-16.61,22.47l-14.66,9.77c-15.35,19.9-31.85,49.23-38.1,76.21l-2.93,32.24c-3.04,13.29-10.18,28.49-6.84,47.87l8.79,40.06.98,26.38,14.66,22.47c9.45,15.91,12.95,36.03,24.43,49.83,4.68,5.62,13.85,6.74,18.56,12.7,6.51,7.82,13.03,15.63,19.54,23.45,11.46,5.54,23.31,11.64,35.17,19.54,11.07,8.14,22.15,16.28,33.22,24.43,1.33-7.24,3.84-7.51,8.79-10.75v-7.82h3.91c2.31,4.56.62,3.16,4.89,3.91,9.65-7.83,22.47-17.58,37.13-19.54l.98-6.84c12.09,6.63,23.95-1.87,40.06-2.93Z"/>
  <path class="cls-3" d="M677.1,293.19l-2.93,44.94c-1.6,8.3-7.72,16.52-5.86,27.36,3.84,22.42,18.31,45.37,13.68,74.25-2.62,16.32-16.22,57.03-14.66,67.41,3.58,13.03,7.17,26.06,10.75,39.08l2.93,28.33c1.32,2.01,1.09,1.57,2.93,2.93l3.91-2.93c7.01-17.92,19.66-34.99,26.38-50.81,10.4-24.48,14.91-97.71,8.79-125.06-6.68-29.89-19.24-61.87-31.26-87.93-3.09-6.69-8.71-9.05-10.75-17.59h-3.91Z"/>
  <path class="cls-4" d="M468.02,428.02l1.95-13.68h-7.82v-.98c2.13-3.72,3.75-5.44,3.91-8.79-2.87-.57-1.86.87-3.91-2.93-9.96-32.85,23.03-33.92,27.36-55.69-10.42-3.58-20.84-7.17-31.26-10.75l-17.59,3.91c-29.32,4.92-46.56,9.75-68.39,18.56l.98,2.93c4.99,2.56,34.43-1.94,48.85,0v.98l-3.91,7.82c-12.86-.39-18.55,2.73-25.4,7.82l.98,2.93c25.07,15.81,35.23,47.73,74.25,47.87Z"/>
  <path class="cls-2" d="M210.08,357.68l.98,1.95-.98-1.95Z"/>
  <path class="cls-4" d="M352.73,373.31l-18.56,16.61c-7.32,9.86-8.75,24.01-17.59,32.24,4.77,9.94-1.88,26.4-3.91,39.08-2.5,15.62,5.79,50.22,10.75,62.53,15.58,38.72,114.13,90.74,181.73,78.16l40.06-15.63c1.27-5.18-.55-9.47-1.95-14.66h-.98c-73.05,30.41-167.04,10.27-200.29-43.97-9.38-15.3-11.19-30.7-14.66-52.76-2.3-14.68-3.66-42.56.98-55.69,6.44-18.23,19.25-28.24,29.31-42.01l-2.93-3.91h-1.95Z"/>
  <path class="cls-4" d="M664.4,383.08c-3.69,14.77-14.97,36.46-10.75,53.74,2.45,10.02,9.82,17.74,12.7,29.31l3.91-.98c.8-20.06,6.8-69.75-5.86-82.07Z"/>
  <path class="cls-3" d="M361.52,385.03c-7.45,9.85-17.47,18.06-22.47,30.29-29.79,72.79,22.89,136.51,73.28,154.37,27.66,9.81,110.24,14.96,127.99-7.82v-1.95c-14.57-11.23-13.39-29.66-19.54-49.83h-.98c-16.49,7.57-32.93,20.4-53.74,24.43-18.27,3.53-33.66-5.3-44.94-9.77-10.09-3.58-20.19-7.17-30.29-10.75-4.56-5.86-9.12-11.72-13.68-17.59-28.47-36.9-21.98-61.42-8.79-107.47l-6.84-3.91Z"/>
  <path class="cls-4" d="M372.27,398.71c-12.2,43.03-11.31,59.74,11.72,92.82l10.75,15.63c32.35,22.21,94.17,24.15,119.2-4.89v-2.93c-13.65-9.22-32.01-13.35-46.9-22.47-6.19-4.23-12.38-8.47-18.56-12.7l-19.54-6.84c-17.91-19.54-35.83-39.08-53.74-58.62h-2.93Z"/>
  <path class="cls-5" d="M474.86,412.39l-2.93,7.82,1.95,1.95,2.93-.98,1.95-7.82-3.91-.98Z"/>
  <path class="cls-5" d="M479.74,421.18v2.93l-9.77.98-.98,2.93.98,2.93,14.66,2.93v-.98l-4.89-11.72Z"/>
  <path class="cls-5" d="M486.58,422.16c-.1,6.63.13,7.2,3.91,9.77v-4.89l-3.91-4.89Z"/>
  <path class="cls-5" d="M489.51,434.86c2.04,2.76,1.84,2.75,4.89,1.95l-4.89-1.95Z"/>
  <path class="cls-5" d="M495.37,436.82c2.23,3.36.59,3.08,3.91.98l-3.91-.98Z"/>
  <path class="cls-4" d="M837.33,533.54c-18.66,57.85-70.06,99.33-111.38,135.81-12.05,8.79-24.1,17.59-36.15,26.38l6.84,16.61h.98c22.52-14.31,64.53-37.3,80.12-56.67,14.68-18.24,24.03-39.73,36.15-60.58,8.58-14.75,27.58-40.78,24.43-61.55h-.98Z"/>
  <path class="cls-3" d="M548.13,608.77c-7.43,7.63-15.62,10.94-21.49,20.52v.98h2.93l21.49.98v-.98c-2.75-8.72.74-11.35,4.89-15.63-4.76-1.86-3.85-3.71-7.82-5.86Z"/>
  <path class="cls-5" d="M524.68,648.83c-18.24,1.95-36.48,3.91-54.71,5.86-35.52,7.69-65.72,18.96-95.75,30.29l.98,4.89c40.3,4.43,105.26-9.84,138.74-22.47,10.36-3.91,29.78-7.08,33.22-17.59-7.49-.33-14.98-.65-22.47-.98Z"/>
  <path class="cls-3" d="M776.76,665.44c-14.35,18.59-39.54,34.24-59.6,46.9-5.54,2.93-11.07,5.86-16.61,8.79-4.28,10.07.35,27.42,1.95,36.15,25.25-5.99,68.92-64.89,78.16-91.84h-3.91Z"/>
  <path class="cls-4" d="M591.12,705.5l-5.86,4.89c2.61,14.98,5.21,29.96,7.82,44.94l9.77-1.95v-3.91c-3.6-15.09-2.41-34.62-11.72-43.97Z"/>
  <path class="cls-4" d="M352.73,710.38c-.22,21.7,6.81,33.45,7.82,52.76l9.77,1.95c-1.95-16.93-3.91-33.87-5.86-50.81l-11.72-3.91Z"/>
  <path class="cls-3" d="M608.71,735.79l2.93,14.66,4.89-.98v-2.93c-1.9-5.13-2.98-8.42-7.82-10.75Z"/>
  <path class="cls-3" d="M615.55,757.28l-2.93,2.93c1.14,16.08,6.38,37.55,8.79,53.74h.98l13.68-6.84c-4.88-16.61-9.77-33.22-14.66-49.83h-5.86Z"/>
  <path class="cls-3" d="M600.89,762.17c-2.99,3.22-3.26,6.8-2.93,13.68,2.93,14.98,5.86,29.96,8.79,44.94h6.84v-2.93c4.65-16.92-5.24-40.34-8.79-55.69h-3.91Z"/>
  <path class="cls-3" d="M383.99,844.24c.43-22.85-3.55-53.97-12.7-70.35l-8.79-1.95c6.97,20.64,11.33,45.95,12.7,71.32l8.79.98Z"/>
</svg>