<?xml version="1.0" encoding="UTF-8"?>
<svg id="Capa_1" data-name="Capa 1" xmlns="http://www.w3.org/2000/svg" viewBox="0 0 1160.47 191.72">
  <defs>
    <style>
      .cls-1 {
        fill: #ffffff;
        stroke-width: 0px;
      }
    </style>
  </defs>
  <path class="cls-1" d="M1116.25,129.29c0-.87-.26-1.56-.78-2.08-.52-.52-1.13-.78-1.82-.78-.52,0-1.08.22-1.69.65-.61.43-.91,1.09-.91,1.95l-.26,3.12h-2.08c-1.39-.52-2.13-1.65-2.21-3.38-.09-1.73-.31-3.3-.65-4.68-.17-.87.09-1.43.78-1.69.69-.26,1.39-.3,2.08-.13,1.56-.7,3.21-1.04,4.94-1.04s3.3.39,4.68,1.17c1.39.78,2.47,1.87,3.25,3.25.78,1.39,1,3.04.65,4.94,1.04,4.16.43,7.5-1.82,10.01-2.25,2.51-4.99,4.03-8.19,4.55-3.21.52-6.42.13-9.63-1.17-3.21-1.3-5.33-3.6-6.37-6.89l-.52-2.6v-1.04c-.35-.7-.61-1.13-.78-1.3l-.78-5.98,13.27-36.94,32,19.51-5.72,58.01-30.96,2.86-4.42-21.85c2.95,1.91,6.33,2.86,10.14,2.86s7.28-.78,10.41-2.34c3.12-1.56,5.59-3.86,7.42-6.89,1.82-3.03,2.21-6.81,1.17-11.32.17-2.6-.3-4.94-1.43-7.02-1.13-2.08-2.69-3.73-4.68-4.94-2-1.22-4.21-1.95-6.64-2.21-2.43-.26-4.77.13-7.02,1.17-1.73-.17-3.12.22-4.16,1.17-1.04.95-1.82,2.13-2.34,3.51-.52,1.39-.69,2.86-.52,4.42.17,1.56.52,2.95,1.04,4.16,0,2.78,1.13,4.77,3.38,5.98,2.25,1.21,4.6,1.56,7.02,1.04,1.91-.35,3.17-1.34,3.77-2.99.61-1.65.73-3.34.39-5.07M1070.98,118.1l1.82,49.43,18.47,23.41h35.64l30.7-22.37,2.86-43.96v-24.71l-23.67-29.91-36.42-6.5-13.53,14.31.78.52-13.53,17.43-3.12,22.37ZM1036.39,118.1l-33.82,50.73-.52-80.64,34.34,29.92ZM981.23,190.94h22.89l38.5-23.41,8.85-31.22,11.18-31.22-50.99-45.78-30.7,12.75.26,118.88ZM916.2,94.69l27.84-15.87-4.94,39.02h-35.12l12.23-23.15ZM916.2,178.71l-12.23-33.56h35.12l-14.31,46.56h35.12l6.76-14.83-14.31-116.8-47.86,16.13-14.83,20.81-13.79,70.76,3.9,23.93,36.42-13.01ZM848.04,91.05l-31.47,31.22v-35.12l31.47,3.9ZM826.97,182.35l-11.97-30.96,20.55-7.54,4.68,47.08,28.1-18.21-21.07-43.96,14.05-10.67,6.5-46.04-29.4-12.49-46.04,12.49,1.56,118.88,33.04-8.58ZM763.24,21.07c.35,1.73.22,3.42-.39,5.07-.61,1.65-1.87,2.65-3.77,2.99-2.43.52-4.77.17-7.02-1.04-2.25-1.21-3.38-3.21-3.38-5.98-.52-1.22-.87-2.6-1.04-4.16-.17-1.56,0-3.04.52-4.42.52-1.39,1.3-2.56,2.34-3.51,1.04-.95,2.43-1.34,4.16-1.17,2.26-1.04,4.6-1.43,7.02-1.17,2.43.26,4.64,1,6.64,2.21,1.99,1.21,3.55,2.86,4.68,4.94,1.13,2.08,1.6,4.42,1.43,7.02,1.21,5.72.3,10.27-2.73,13.66-3.04,3.38-6.85,5.51-11.45,6.37-4.6.87-9.1.3-13.53-1.69-4.42-1.99-7.33-5.5-8.72-10.53l-.52-3.38c-.17-.87,0-1.6.52-2.21.52-.61,1.08-.95,1.69-1.04.61-.09,1.21.05,1.82.39.61.35,1,.95,1.17,1.82,0,4.34,1.6,7.46,4.81,9.36,3.21,1.91,6.63,2.73,10.27,2.47,3.64-.26,6.76-1.65,9.36-4.16,2.6-2.51,3.29-6.03,2.08-10.54.35-1.91.13-3.56-.65-4.94-.78-1.39-1.87-2.47-3.25-3.25-1.38-.78-2.95-1.17-4.68-1.17s-3.38.35-4.94,1.04c-.7-.17-1.39-.13-2.08.13-.69.26-.95.83-.78,1.69.35,1.39.57,2.95.65,4.68.09,1.73.82,2.86,2.21,3.38h2.08l.26-3.12c0-.87.3-1.52.91-1.95.61-.43,1.17-.65,1.69-.65.69,0,1.3.26,1.82.78.52.52.78,1.21.78,2.08ZM733.33,133.45l6.5-30.96,14.57-43.18,21.33,22.37-16.91,42.4,18.73,45.26v21.59h-34.86l8.84-24.19-18.21-33.3ZM633.17,112.9c.35-.35.61-.52.78-.52.87-2.95.35-5.77-1.56-8.46-1.91-2.69-4.25-4.46-7.02-5.33-1.73-3.99-2.3-8.24-1.69-12.75.61-4.51,2.38-8.5,5.33-11.97,1.56-.35,2.56-1,2.99-1.95.43-.95.57-1.99.39-3.12-.17-1.13-.56-2.3-1.17-3.51-.61-1.22-1.17-2.34-1.69-3.38-1.91-.69-3.73-1.82-5.46-3.38-1.74-1.56-3.04-3.34-3.9-5.33-.87-1.99-1.21-4.03-1.04-6.11.17-2.08,1.21-4.08,3.12-5.98.35-2.08,1.47-3.47,3.38-4.16,1.91-.69,3.82-1.04,5.73-1.04.87,0,1.56.26,2.08.78.52.52.82,1.08.91,1.69.09.61-.09,1.22-.52,1.82-.43.61-1.09.91-1.95.91-.69.17-1.39.26-2.08.26-.52,0-1.13.09-1.82.26-.35.87-.91,1.74-1.69,2.6-.78.87-1.35,1.82-1.69,2.86,0-.35-.04-.26-.13.26-.09.52-.13.87-.13,1.04-.35,1.39-.09,2.43.78,3.12.87.7,1.47,1.56,1.82,2.6,1.91.87,3.64,2.04,5.2,3.51,1.56,1.48,2.78,3.17,3.64,5.07.87,1.91,1.39,3.94,1.56,6.11.18,2.17-.17,4.21-1.04,6.12-3.3,1.91-5.5,4.68-6.63,8.32-1.13,3.64-1.26,7.28-.39,10.93,1.91,1.04,3.69,2.43,5.33,4.16,1.65,1.73,2.91,3.73,3.77,5.98.86,2.26,1.26,4.51,1.17,6.76-.09,2.26-.91,4.42-2.47,6.5-.7.7-1.13,1.04-1.3,1.04-.17.35-.35.65-.52.91-.17.26-.35.57-.52.91-.87.52-1.56,1.39-2.08,2.6-.52,1.21-.78,2.51-.78,3.9,0,1.22.35,2.34,1.04,3.38.69,1.04,1.73,1.65,3.12,1.82,2.78.69,5.12,2.12,7.02,4.29,1.91,2.17,3.21,4.6,3.9,7.28.69,2.69.65,5.42-.13,8.2-.78,2.78-2.3,5.12-4.55,7.02-1.56.69-2.69,1.86-3.38,3.51-.7,1.65-.91,3.25-.65,4.81.26,1.56.99,2.82,2.21,3.77,1.22.95,2.78,1.17,4.68.65,2.25.52,4.12,0,5.59-1.56,1.47-1.56,2.73-3.21,3.77-4.94,1.04-1.39,2.26-1.56,3.64-.52,1.39,1.04,1.56,2.25.52,3.64-1.39,2.25-3.08,4.29-5.07,6.11-2,1.82-4.38,2.73-7.16,2.73-2.95.69-5.5.35-7.67-1.04-2.17-1.39-3.73-3.21-4.68-5.46-.95-2.25-1.26-4.68-.91-7.28.35-2.6,1.56-4.86,3.64-6.76,2.25-1.04,3.86-2.69,4.81-4.94.95-2.26,1.08-4.6.39-7.02-.17,0-.35-.3-.52-.91-.18-.61-.44-1.08-.78-1.43,0-1.73-.78-2.73-2.34-2.99-1.56-.26-2.86-.82-3.9-1.69-2.25-.52-3.99-1.52-5.2-2.99-1.22-1.47-2-3.12-2.34-4.94-.35-1.82-.35-3.73,0-5.72.35-1.99.95-3.86,1.82-5.59,1.22-.35,2.04-1,2.47-1.95.43-.95.82-1.86,1.17-2.73l.78-.78ZM652.42,138.91l-14.57-125.13-40.58,33.56,15.61,27.05,13.01,116.54,48.39-14.83,47.35-115.24-3.64-52.03-65.55,20.55,34.34,21.33-9.63,24.71-24.71,63.47ZM437.81,129.29c0-.87-.26-1.56-.78-2.08-.52-.52-1.12-.78-1.82-.78-.52,0-1.08.22-1.69.65-.61.43-.91,1.09-.91,1.95l-.26,3.12h-2.08c-1.39-.52-2.12-1.65-2.21-3.38-.09-1.73-.3-3.3-.65-4.68-.18-.87.09-1.43.78-1.69.7-.26,1.39-.3,2.08-.13,1.56-.7,3.21-1.04,4.94-1.04s3.3.39,4.68,1.17c1.39.78,2.47,1.87,3.25,3.25.78,1.39.99,3.04.65,4.94,1.04,4.16.44,7.5-1.82,10.01-2.25,2.51-4.98,4.03-8.19,4.55-3.21.52-6.42.13-9.62-1.17-3.21-1.3-5.33-3.6-6.38-6.89l-.52-2.6v-1.04c-.35-.7-.61-1.13-.78-1.3l-.78-5.98,13.27-36.94,32,19.51-5.72,58.01-30.96,2.86-4.42-21.85c2.95,1.91,6.33,2.86,10.15,2.86s7.28-.78,10.41-2.34c3.12-1.56,5.59-3.86,7.42-6.89,1.82-3.03,2.21-6.81,1.17-11.32.17-2.6-.3-4.94-1.43-7.02-1.13-2.08-2.69-3.73-4.68-4.94-2-1.22-4.21-1.95-6.63-2.21-2.43-.26-4.77.13-7.02,1.17-1.73-.17-3.12.22-4.16,1.17-1.04.95-1.82,2.13-2.34,3.51-.52,1.39-.69,2.86-.52,4.42.17,1.56.52,2.95,1.04,4.16,0,2.78,1.13,4.77,3.38,5.98,2.26,1.21,4.6,1.56,7.02,1.04,1.91-.35,3.17-1.34,3.77-2.99.61-1.65.74-3.34.39-5.07ZM392.55,118.1l1.82,49.43,18.47,23.41h35.64l30.7-22.37,2.86-43.96v-24.71l-23.67-29.91-36.42-6.5-13.53,14.31.78.52-13.53,17.43-3.12,22.37ZM340.52,190.94l44.48-18.21-14.31-30.7-30.18,17.69-6.24-68.16,28.88,8.32-8.58,7.02,20.55,15.35,9.88-30.44-52.55-32.26-20.81,16.91,1.3,114.46h27.57ZM255.71,129.29c0-.87-.26-1.56-.78-2.08-.52-.52-1.13-.78-1.82-.78-.52,0-1.09.22-1.69.65-.61.43-.91,1.09-.91,1.95l-.26,3.12h-2.08c-1.39-.52-2.12-1.65-2.21-3.38-.09-1.73-.31-3.3-.65-4.68-.17-.87.09-1.43.78-1.69.69-.26,1.39-.3,2.08-.13,1.56-.7,3.21-1.04,4.94-1.04s3.29.39,4.68,1.17c1.39.78,2.47,1.87,3.25,3.25.78,1.39,1,3.04.65,4.94,1.04,4.16.43,7.5-1.82,10.01-2.26,2.51-4.99,4.03-8.2,4.55-3.21.52-6.42.13-9.62-1.17-3.21-1.3-5.33-3.6-6.37-6.89l-.52-2.6v-1.04c-.35-.7-.61-1.13-.78-1.3l-.78-5.98,13.27-36.94,32,19.51-5.72,58.01-30.96,2.86-4.42-21.85c2.95,1.91,6.33,2.86,10.14,2.86s7.28-.78,10.41-2.34c3.12-1.56,5.59-3.86,7.42-6.89,1.82-3.03,2.21-6.81,1.17-11.32.17-2.6-.3-4.94-1.43-7.02-1.13-2.08-2.69-3.73-4.68-4.94-1.99-1.22-4.21-1.95-6.63-2.21-2.43-.26-4.77.13-7.02,1.17-1.74-.17-3.12.22-4.16,1.17-1.04.95-1.82,2.13-2.34,3.51-.52,1.39-.7,2.86-.52,4.42.17,1.56.52,2.95,1.04,4.16,0,2.78,1.13,4.77,3.38,5.98,2.25,1.21,4.6,1.56,7.02,1.04,1.91-.35,3.16-1.34,3.77-2.99.61-1.65.73-3.34.39-5.07ZM210.45,118.1l1.82,49.43,18.47,23.41h35.64l30.69-22.37,2.86-43.96v-24.71l-23.67-29.91-36.42-6.5-13.53,14.31.78.52-13.53,17.43-3.12,22.37ZM138.91,190.94h54.11l9.37-30.18-43.7,6.76,7.29-85.84-27.84-18.21.78,127.47ZM25.49,11.19c1.91,0,2.86.87,2.86,2.6s-.96,2.6-2.86,2.6h-5.2c-1.91,1.56-3.17,3.77-3.77,6.63-.61,2.86.04,5.42,1.95,7.68,3.64,1.56,5.68,4.16,6.11,7.8.43,3.64-.13,7.02-1.69,10.15-.87,1.73-2.13,2.99-3.77,3.77-1.65.78-2.65,2.13-2.99,4.03-2.08,1.39-3.17,3.25-3.25,5.59-.09,2.34-.13,4.64-.13,6.89,1.74,1.39,3.3,3.12,4.68,5.2,1.39,2.08,2.34,4.29,2.86,6.63.52,2.34.65,4.68.39,7.02-.26,2.34-1.08,4.55-2.47,6.63-.69,1.56-1.73,2.91-3.12,4.03-1.39,1.13-1.99,2.65-1.82,4.55.7,1.74,1.95,3.25,3.77,4.55,1.82,1.3,3.6,2.65,5.33,4.03,1.73,1.39,3.16,2.95,4.29,4.68,1.12,1.73,1.43,3.9.91,6.5.87,3.64.39,6.77-1.43,9.37-1.82,2.6-4.03,4.86-6.64,6.76,0,1.39-.7,2.34-2.08,2.86-.87,2.95-1.65,5.9-2.34,8.85-.69,2.95-.95,5.98-.78,9.11-.35,1.04-.48,2.21-.39,3.51.09,1.3.34,2.47.78,3.51.43,1.04,1.13,1.82,2.08,2.34.95.52,2.21.61,3.77.26,0-.17.35-.43,1.04-.78.69-.35,1.21-.78,1.56-1.3.35-.69.87-1.13,1.56-1.3.69-.17,1.34-.13,1.95.13.6.26,1.04.7,1.3,1.3.26.61.21,1.26-.13,1.95-1.04,2.25-2.73,3.77-5.07,4.55-2.34.78-4.73.91-7.15.39-2.43-.87-4.12-2.17-5.07-3.9-.95-1.73-1.47-3.69-1.56-5.85-.09-2.17-.05-4.42.13-6.76.17-2.34.17-4.46,0-6.37,1.39-1.91,2.08-4.16,2.08-6.76,0-2.78,1.04-5.12,3.12-7.02.17-1.56,1-2.64,2.47-3.25,1.47-.61,2.38-1.69,2.73-3.25,1.91-.35,2.82-1.47,2.73-3.38-.09-1.91-.05-3.56.13-4.94.17-1.56-.09-2.95-.78-4.16-.7-1.22-1.6-2.3-2.73-3.25-1.13-.95-2.34-1.82-3.64-2.6-1.3-.78-2.47-1.61-3.51-2.47-2.43-1.39-3.64-3.38-3.64-5.98,0-2.78.44-5.29,1.3-7.54,2.26-1.39,3.9-3.3,4.94-5.72,1.04-2.43,1.43-4.86,1.17-7.28-.26-2.43-1.08-4.77-2.47-7.02-1.39-2.26-3.21-3.99-5.46-5.2.17-2.95.22-6.07.13-9.36-.09-3.3,1.08-5.9,3.51-7.8.52-2.25,1.69-3.9,3.51-4.94,1.82-1.04,3.16-2.51,4.03-4.42v.52c.35-1.04.61-2.08.78-3.12.17-1.04.09-2.08-.26-3.12-1.56-1.22-2.99-2.69-4.29-4.42-1.3-1.73-2.34-3.6-3.12-5.59-.78-1.99-1.09-4.07-.91-6.24.17-2.17,1.04-4.2,2.6-6.11.52-2.95,2.04-4.72,4.55-5.33,2.51-.61,4.98-.74,7.41-.39ZM94.69,150.36l-66.33,3.12,20.81-46.3,45.52,43.18ZM80.64,42.92l-52.03,47.09V26.01l52.03,16.91ZM90.78,8.32c1.04.35,1.47.61,1.3.78-.18.17-.52.26-1.04.26-.35,0-.65-.09-.91-.26-.26-.17-.05-.43.65-.78L0,0l.78,186.52,74.92-4.42,30.96-5.72,16.65-46.31-27.32-29.13-29.91-4.42,27.57-18.47,25.23-17.69-28.1-52.03Z"/>
</svg>
